<?xml version="1.0" encoding="utf-8"?>
<!DOCTYPE svg PUBLIC "-//W3C//DTD SVG 1.1//EN" "http://www.w3.org/Graphics/SVG/1.1/DTD/svg11.dtd">
<svg version="1.1" id="Calque_1" xmlns="http://www.w3.org/2000/svg" xmlns:xlink="http://www.w3.org/1999/xlink" x="0px" y="0px"
	 viewBox="29.7 20.4 27.5 36" style="enable-background:new 29.7 20.4 27.5 36;" xml:space="preserve">
<path style="fill:#FFFFFF;" d="M50.6,43.3c0.4,0.2,2.9-0.1,2.8-3.4c0,0,4.6,1.5,2.4,7.1c0,0-1.8,3.3-0.2,4.8c0,0-2.9,3.5-8.5,4.5
	c1.1-0.4,1.2-1.8,1.3-4c0.1-2.2,1.4-5.4,1.4-5.4c-5.8,2.6-3.7-8.5-3.7-8.5c-2.6,9.3-4.8,8.9-4.8,8.9c-2,0.5-5-3.6-5-3.6
	c-0.9,3.2,2.8,8.3,2.8,8.3c1.3,2.2,1.2,3.8,1.1,4.1c-1.7-0.4-3.6-0.9-5.6-1.8c0,0,1.3-1.4-0.5-3.3c-1.7-2-8.4-9.2-1.2-13.4
	c0,0,4.1-2.2,3.7-6.7c0,0,3.5,1.4,2.8,6.7c0,0-0.2,1.8,1.4,1.5c0,0,4.6-1.1,2.2-5.6c0,0-7.3-9.7,4.9-13.4c0,0-4.3,4.7-2.1,8.1
	c2.2,3.4,8.8,4,4.6-4.7c0,0,12.1,6.2,3.7,12.6C46.5,42.6,50.6,43.3,50.6,43.3z"/>
</svg>
